<svg version="1.1" id="Layer_1" xmlns="http://www.w3.org/2000/svg" xmlns:xlink="http://www.w3.org/1999/xlink" x="0px" y="0px"
	 viewBox="0 0 50 50" style="enable-background:new 0 0 50 50;" xml:space="preserve">
<path fill="currentColor" class="st0" d="M24.9,1.1L24.9,1.1C11.8,1.1,1.2,11.7,1.2,24.8c0,13.1,10.6,23.7,23.7,23.7c13.1,0,23.7-10.6,23.7-23.7
	C48.7,11.7,38,1.1,24.9,1.1z M35.8,35.3L35.8,35.3c-0.4,0.7-1.3,0.9-2,0.5c-5.6-3.4-12.6-4.2-20.8-2.3c-0.8,0.2-1.6-0.3-1.8-1.1
	c-0.2-0.8,0.3-1.6,1.1-1.8c9-2.1,16.8-1.2,23,2.6C36,33.7,36.2,34.6,35.8,35.3z M38.7,28.9L38.7,28.9L38.7,28.9
	c-0.5,0.9-1.7,1.1-2.5,0.6c-6.4-3.9-16.1-5.1-23.6-2.8c-1,0.3-2-0.3-2.3-1.2c-0.3-1,0.3-2,1.2-2.3c8.6-2.6,19.3-1.3,26.6,3.2
	C39,26.9,39.3,28,38.7,28.9L38.7,28.9C38.7,28.9,38.7,28.9,38.7,28.9z M39,22.1L39,22.1c-7.6-4.5-20.3-5-27.6-2.7
	c-1.2,0.4-2.4-0.3-2.8-1.5c-0.4-1.2,0.3-2.4,1.5-2.8c8.4-2.5,22.3-2.1,31.1,3.2c1.1,0.6,1.4,2,0.8,3C41.4,22.4,40,22.8,39,22.1z"/>
</svg>
